<?xml version="1.0" encoding="UTF-8"?>
<svg id="Layer_2" data-name="Layer 2" xmlns="http://www.w3.org/2000/svg" viewBox="0 0 52.66 52.66">
  <defs>
    <style>
      .cls-1 {
        fill: #fff;
        stroke-width: 0px;
      }
    </style>
  </defs>
  <g id="Layer_1-2" data-name="Layer 1">
    <g>
      <path class="cls-1" d="M52.66,0H0v52.66h52.66V0ZM52.13,52.13H.53V.53h51.61v51.61Z"/>
      <path class="cls-1" d="M12.32,40.91l.47-1.34c.07-.23.13-.49.18-.81.05.32.11.58.19.81l.47,1.34h-1.31ZM11.79,36.95l-2.5,6.3h2.23l.3-.84h2.31l.29.84h2.23l-2.49-6.3h-2.37Z"/>
      <polygon class="cls-1" points="19.33 36.95 17.12 36.95 17.12 43.25 22.18 43.25 22.18 41.43 19.33 41.43 19.33 36.95"/>
      <path class="cls-1" d="M25.63,41.5h-.62v-2.81h.62c.78,0,1.26.38,1.26,1.4s-.48,1.4-1.26,1.4M25.69,36.95h-2.88v6.3h2.88c2.4,0,3.46-1.3,3.46-3.15s-1.07-3.15-3.46-3.15"/>
      <path class="cls-1" d="M32.05,40.91l.47-1.34c.07-.23.13-.49.18-.81.05.32.11.58.19.81l.47,1.34h-1.31ZM31.52,36.95l-2.5,6.3h2.23l.3-.84h2.31l.29.84h2.23l-2.49-6.3h-2.37Z"/>
      <path class="cls-1" d="M39.91,39.83h-.85v-1.19h.85c.43,0,.68.24.68.59s-.25.59-.68.59M41.65,41.05c.67-.32,1.15-.9,1.15-1.88,0-1.72-1.42-2.22-2.84-2.22h-3.1v6.3h2.2v-1.86h.52l1.37,1.86h2.42l-1.72-2.2Z"/>
      <rect class="cls-1" x="36.42" y="7.96" width="6.77" height="11.7"/>
      <path class="cls-1" d="M38.89,28.81c0,1.04-.94,1.02-1.57,1.02h-3.14v5.18h9.01v-10.04s-1.26-2.43-4.34-4.39l-4.01,3.73s4.05,1.97,4.05,4.49"/>
      <path class="cls-1" d="M18.6,16.47c0-3.39,2.31-5.81,2.31-5.81l4.62,2.44c-2.2,2.61-1.74,5.32.82,5.32s2.48-2.21,2.48-2.46v-7.99h5.47v8.37c0,3.61-3.1,7.39-7.89,7.39-4.31,0-7.82-3.3-7.82-7.26"/>
      <path class="cls-1" d="M18.79,21.49h-2.36v2.48c0,5.66-3.31,6.16-5.21,6.14h-1.78v4.9h8.82c3.05-2.04,4.67-5.49,4.9-10.39-1.77-.62-3.28-1.72-4.37-3.13"/>
      <path class="cls-1" d="M26.43,25.17c-.38,0-.75-.02-1.12-.06v9.9h6.76v-11.61c-1.57,1.11-3.52,1.77-5.64,1.77"/>
    </g>
  </g>
</svg>