<?xml version="1.0" encoding="UTF-8"?>
<svg id="Layer_2" data-name="Layer 2" xmlns="http://www.w3.org/2000/svg" viewBox="0 0 199.08 120.53">
  <defs>
    <style>
      .cls-1 {
        fill: #b38a68;
        stroke-width: 0px;
      }
    </style>
  </defs>
  <g id="Layer_1-2" data-name="Layer 1">
    <g>
      <g>
        <path class="cls-1" d="M0,84.68h.34c1.3,3.77,5.76,4.42,8.98,4.42,3.77,0,7.23-.86,7.23-3.27,0-5.43-16.16.05-16.16-8.31,0-4.52,5.31-5.57,10.04-5.57,2.76,0,5.28.48,6.94,1.49.17-.05.38-.14.5-.43h.31v4.25h-.34c-.6-3.24-5.31-3.72-7.37-3.72-3.53,0-6.72.86-6.72,2.93,0,5.24,16.19-.19,16.19,8.36,0,4.71-6.12,5.91-10.61,5.91-4.18,0-7.3-.89-9.05-1.85l-.26-4.2ZM40.95,85.49h-12.32l-1.47,2.35c-.14.24-.22.46-.22.65,0,.82,1.1,1.22,1.95,1.46v.31h-7.66v-.31c.86-.22,2.33-.67,4.06-3.31l8.12-12.87-.07-.12c-.38-.53-1.49-.84-1.97-.91v-.34h5.86l9.51,15.18c1.03,1.66,2.26,2.14,3.07,2.38v.31h-9.29v-.31c.91-.24,2.04-.77,2.04-1.59,0-.22-.07-.43-.24-.67l-1.37-2.21ZM29.83,83.57h9.94l-4.92-8.04-5.02,8.04ZM55.53,74.95c.36-1.59-.67-1.9-1.56-2.21v-.34h5.91l6.84,12.63,7.18-12.63h5.79v.34c-1.03.31-1.87.79-1.56,2.14l2.59,11.84c.53,2.43.89,2.86,2.16,3.24v.31h-6.82v-.31c.84-.12,1.15-.41,1.15-1.2,0-.38-.07-.91-.22-1.59l-2.59-11.7-8.5,15.03h-.36l-8.05-14.84-2.52,11.53c-.12.5-.17.94-.17,1.27,0,.98.46,1.32,1.3,1.49v.31h-5.36v-.31c.67-.22,1.44-.43,1.99-2.91l2.79-12.1ZM103.66,85.49h-12.32l-1.46,2.35c-.14.24-.22.46-.22.65,0,.82,1.1,1.22,1.95,1.46v.31h-7.66v-.31c.86-.22,2.33-.67,4.06-3.31l8.12-12.87-.07-.12c-.38-.53-1.49-.84-1.97-.91v-.34h5.86l9.51,15.18c1.03,1.66,2.26,2.14,3.07,2.38v.31h-9.29v-.31c.91-.24,2.04-.77,2.04-1.59,0-.22-.07-.43-.24-.67l-1.37-2.21ZM92.54,83.57h9.94l-4.92-8.04-5.02,8.04ZM168.24,85.49h-12.32l-1.46,2.35c-.14.24-.22.46-.22.65,0,.82,1.1,1.22,1.95,1.46v.31h-7.66v-.31c.86-.22,2.33-.67,4.06-3.31l8.12-12.87-.07-.12c-.38-.53-1.49-.84-1.97-.91v-.34h5.86l9.51,15.18c1.03,1.66,2.26,2.14,3.07,2.38v.31h-9.29v-.31c.91-.24,2.04-.77,2.04-1.59,0-.22-.07-.43-.24-.67l-1.37-2.21ZM157.12,83.57h9.94l-4.92-8.04-5.02,8.04ZM179.15,84.68h.34c1.3,3.77,5.76,4.42,8.98,4.42,3.77,0,7.23-.86,7.23-3.27,0-5.43-16.16.05-16.16-8.31,0-4.52,5.31-5.57,10.04-5.57,2.76,0,5.28.48,6.94,1.49.17-.05.38-.14.5-.43h.31v4.25h-.34c-.6-3.24-5.31-3.72-7.37-3.72-3.53,0-6.72.86-6.72,2.93,0,5.24,16.19-.19,16.19,8.36,0,4.71-6.12,5.91-10.61,5.91-4.18,0-7.3-.89-9.05-1.85l-.26-4.2Z"/>
        <path class="cls-1" d="M141.44,84.45v3.32c.1,1.27.79,1.84,1.85,2.2v.31h-7.59v-.31c1.1-.35,1.75-.84,1.9-2.17v-2.43l-8.38-10.42c-.77-.94-1.59-1.88-2.93-2.2v-.34h8.04v.34c-.5.15-1.15.49-1.15,1.02,0,.21.12.47.36.77l6.56,8.18,6.75-7.73c.29-.35.41-.68.41-.97,0-.62-.53-1.14-1.18-1.26v-.34h6.48v.34c-.89.15-1.44.58-2.83,2.11l-8.29,9.59Z"/>
      </g>
      <g>
        <path class="cls-1" d="M65.55,117.03c.31.38.46.82.46,1.3,0,.42-.11.79-.32,1.12-.22.33-.53.6-.93.79-.41.19-.88.29-1.42.29h-3.27v-8.17h3.11c.56,0,1.03.09,1.43.28.4.19.7.44.9.76.2.32.31.67.31,1.06,0,.47-.13.86-.38,1.18-.25.31-.59.54-1.01.69.44.08.81.31,1.12.69ZM61.4,115.79h1.66c.44,0,.78-.1,1.03-.3.25-.2.37-.49.37-.86s-.12-.66-.37-.86c-.25-.21-.59-.31-1.03-.31h-1.66v2.34ZM64.28,119.11c.26-.22.39-.52.39-.92s-.14-.72-.41-.95c-.27-.24-.64-.35-1.09-.35h-1.76v2.55h1.81c.45,0,.81-.11,1.07-.33Z"/>
        <path class="cls-1" d="M77.04,112.36l-2.7,5.21v2.96h-1.34v-2.96l-2.71-5.21h1.49l1.89,4.01,1.89-4.01h1.48Z"/>
        <path class="cls-1" d="M93.16,118.97h-3.27l-.54,1.56h-1.73l2.95-8.22h1.92l2.95,8.22h-1.74l-.54-1.56ZM92.72,117.65l-1.19-3.43-1.19,3.43h2.37Z"/>
        <path class="cls-1" d="M101.72,119.23h2.7v1.3h-4.35v-8.2h1.65v6.9Z"/>
        <path class="cls-1" d="M114.14,112.83c.65.34,1.16.82,1.52,1.44.36.62.53,1.35.53,2.17s-.18,1.54-.53,2.16c-.36.62-.86,1.09-1.52,1.43-.65.34-1.41.51-2.27.51h-2.87v-8.2h2.87c.86,0,1.62.17,2.27.51ZM113.8,118.43c.47-.47.71-1.13.71-1.99s-.24-1.52-.71-2c-.47-.48-1.14-.72-2-.72h-1.16v5.42h1.16c.86,0,1.53-.24,2-.71Z"/>
        <path class="cls-1" d="M125.98,118.97h-3.27l-.54,1.56h-1.73l2.95-8.22h1.92l2.95,8.22h-1.74l-.54-1.56ZM125.53,117.65l-1.19-3.43-1.19,3.43h2.37Z"/>
        <path class="cls-1" d="M137.12,120.53l-1.81-3.2h-.78v3.2h-1.65v-8.2h3.08c.63,0,1.18.11,1.62.34.45.22.78.52,1,.9.22.38.33.8.33,1.27,0,.54-.16,1.03-.47,1.46-.31.43-.78.73-1.4.9l1.96,3.33h-1.9ZM134.53,116.1h1.37c.45,0,.78-.11,1-.32.22-.22.33-.52.33-.9s-.11-.67-.33-.88c-.22-.21-.55-.31-1-.31h-1.37v2.41Z"/>
      </g>
      <g>
        <path class="cls-1" d="M119.28,5.48v24.29c0,1.9-1.14,3.41-2.97,3.94-3.13.9-7.21-1.98-9.46-5.15l-.1-.13V4.39l-8.97,2.16c1.95.46,3.25,1.71,3.25,3.32v19.9c0,1.9-1.14,3.41-2.97,3.94-3.23.93-7.32-1.96-9.52-5.16l-.09-.13V8.81l-8.98,2.16c1.95.46,3.25,1.71,3.25,3.32v15.48c0,1.9-1.14,3.41-2.97,3.94-2.64.76-6.04-.31-8.36-2.55l-.08.16c2.76,2.89,6.64,4.62,10.46,4.64,3.08,0,6.33-1.63,6.64-5.26l.11-1.32.81,1.04c.04.06,4.38,5.53,10.74,5.53,3.53,0,6.25-2.17,6.62-5.28l.14-1.13.76.85c1.5,1.66,5.56,5.54,10.73,5.56,1.56,0,6.67-.39,6.67-5.43V0l-8.98,2.16c1.95.46,3.25,1.71,3.25,3.32Z"/>
        <g>
          <path class="cls-1" d="M116.91,39.05c-1.73,0-2.84.89-2.84,2.02s1.11,2.06,2.84,2.06c1.62,0,2.84-.93,2.84-2.06s-1.22-2.02-2.84-2.02Z"/>
          <path class="cls-1" d="M124.93,39.05c-1.67,0-2.84.89-2.84,2.02s1.17,2.06,2.84,2.06,2.84-.93,2.84-2.06-1.17-2.02-2.84-2.02Z"/>
        </g>
      </g>
    </g>
  </g>
</svg>